Coordinates
version=1
nRows=8
nColumns=40
inDegrees=yes

Units are S.I. units (second, meters, Newtons, ...)
Angles are in degrees.

endheader
time	pelvis_tilt	pelvis_list	pelvis_rotation	pelvis_tx	pelvis_ty	pelvis_tz	hip_flexion_r	hip_adduction_r	hip_rotation_r	knee_angle_r	knee_angle_r_beta	ankle_angle_r	subtalar_angle_r	mtp_angle_r	hip_flexion_l	hip_adduction_l	hip_rotation_l	knee_angle_l	knee_angle_l_beta	ankle_angle_l	subtalar_angle_l	mtp_angle_l	lumbar_extension	lumbar_bending	lumbar_rotation	arm_flex_r	arm_add_r	arm_rot_r	elbow_flex_r	pro_sup_r	wrist_flex_r	wrist_dev_r	arm_flex_l	arm_add_l	arm_rot_l	elbow_flex_l	pro_sup_l	wrist_flex_l	wrist_dev_l
      9.74000000	     -4.17352852	     -4.89542539	      6.24387352	      0.96257280	      0.93182551	      0.44347640	     12.51067221	      3.80572583	    -16.17265186	     13.89510958	     13.89510958	      8.41714665	     -3.70176694	     -4.18129373	     36.21460550	     -7.67095958	      4.42851053	     63.02693538	     63.02693538	      6.91786085	    -18.53447392	     12.50858045	     -9.92488919	      4.33785942	      3.13135805	     18.27064977	    -20.99168964	     -5.70655924	     84.12953301	     45.50864911	      0.00000000	      0.00000000	      2.70455116	     -7.84696426	     -5.01959465	     29.97152577	     45.71510301	      0.00000000	      0.00000000
      9.75221429	     -4.24800950	     -4.67265820	      6.35661908	      0.96234440	      0.93204494	      0.44347432	     11.99406087	      3.66963021	    -15.91274361	     13.80429661	     13.80429661	      8.77352657	     -4.02397521	     -4.33916876	     37.02237791	     -7.35106948	      4.02534481	     59.89817862	     59.89817862	      7.55680487	    -18.69555940	     12.79997448	     -9.88194200	      4.06223333	      2.74048871	     19.94999456	    -20.58383933	     -5.64684575	     86.42344510	     45.43685181	      0.00000000	      0.00000000	      1.80662133	     -7.91111483	     -4.88318155	     28.66171809	     45.69053530	      0.00000000	      0.00000000
      9.76442857	     -4.36602154	     -4.50496493	      6.46123456	      0.96202474	      0.93206711	      0.44343673	     11.54052161	      3.58586554	    -15.70435559	     13.69626244	     13.69626244	      9.06094290	     -4.35665468	     -4.52186988	     37.64944567	     -7.03583800	      3.68180660	     56.42661476	     56.42661476	      8.05742560	    -18.74607234	     12.87491362	     -9.85062284	      3.86719659	      2.91091952	     21.06465539	    -20.87848280	     -5.45094850	     89.63427679	     45.32889604	      0.00000000	      0.00000000	      1.50091249	     -7.80676686	     -4.64292012	     26.62228422	     45.68201778	      0.00000000	      0.00000000
      9.77664286	     -4.53112184	     -4.30870157	      6.52337744	      0.96175265	      0.93202160	      0.44331341	     11.13911692	      3.44441547	    -15.53176697	     13.60835031	     13.60835031	      9.43689306	     -4.47565073	     -4.60367957	     38.06443937	     -6.64312428	      3.33423631	     52.64046808	     52.64046808	      8.48604640	    -18.68146493	     13.17902051	     -9.71112573	      3.60144146	      2.97952024	     22.70021986	    -20.91148300	     -5.72064794	     91.01606604	     45.29989446	      0.00000000	      0.00000000	      0.70146297	     -7.72188586	     -4.58970761	     26.02438362	     45.66450431	      0.00000000	      0.00000000
      9.78885714	     -4.52101825	     -4.05580215	      6.61536250	      0.96167156	      0.93217991	      0.44305702	     10.56966242	      3.23879817	    -15.39237641	     13.60293748	     13.60293748	      9.84885884	     -4.62010062	     -4.66860456	     38.02194860	     -6.10262854	      3.14559487	     48.58133501	     48.58133501	      8.77711883	    -18.59171002	     13.45149350	     -9.80704765	      3.31820505	      2.56116390	     24.29554194	    -20.23671536	     -5.67767912	     93.59239360	     45.22343540	      0.00000000	      0.00000000	     -0.13509689	     -7.81123751	     -4.49179238	     24.94084634	     45.64652030	      0.00000000	      0.00000000
      9.80107143	     -4.66455565	     -3.95563094	      6.71491841	      0.96155017	      0.93187771	      0.44266842	     10.19120961	      3.15093550	    -15.46104904	     13.59475345	     13.59475345	     10.28353786	     -4.58003906	     -4.67473386	     38.06974600	     -5.61415110	      3.16894626	     44.51332313	     44.51332313	      8.94169697	    -18.36962519	     13.25526625	     -9.73639688	      3.25491286	      2.46836047	     25.65326283	    -20.05332194	     -5.59658226	     96.60383582	     45.13308833	      0.00000000	      0.00000000	     -0.73678091	     -7.68318836	     -4.34456025	     23.70693447	     45.63355406	      0.00000000	      0.00000000
      9.81328571	     -4.72464854	     -3.75552942	      6.74316605	      0.96154949	      0.93174909	      0.44220050	      9.70622578	      2.97299468	    -15.34780350	     13.59115975	     13.59115975	     10.73456654	     -4.53857108	     -4.72607354	     37.82930924	     -5.06478036	      3.14507159	     40.35881776	     40.35881776	      9.06707328	    -17.88463138	     13.30371744	     -9.72987236	      3.02326591	      2.52384656	     26.91145004	    -19.90287183	     -5.67756174	     98.51414012	     45.08235239	      0.00000000	      0.00000000	     -1.30643150	     -7.61192099	     -4.27660176	     23.04360388	     45.62424335	      0.00000000	      0.00000000
      9.82550000	     -4.81391953	     -3.67838416	      6.80695497	      0.96162724	      0.93136231	      0.44158167	      9.26627305	      2.88525392	    -15.40396723	     13.59891707	     13.59891707	     11.21760852	     -4.35127660	     -4.75161940	     37.61103752	     -4.60442188	      3.29209380	     36.38135907	     36.38135907	      9.11234792	    -17.05656612	     13.03581975	     -9.67980837	      2.98222683	      2.53589310	     28.15638057	    -19.62500386	     -5.68796807	    100.86204454	     45.01674205	      0.00000000	      0.00000000	     -1.93540119	     -7.49349309	     -4.21205576	     22.42641553	     45.61621213	      0.00000000	      0.00000000
